<svg width="312" height="296" viewBox="0 0 312 296" fill="none" xmlns="http://www.w3.org/2000/svg">
<path d="M154.78 295.78C121.65 295.78 97.7899 277.56 76.9199 257.83C54.2999 235.83 31.3199 207.39 12.1699 177.69C12.1399 177.64 12.1099 177.59 12.0799 177.54C-6.86008 146.02 -3.49008 111.21 22.0799 74.08C47.8699 37.51 96.5699 -1.1 156 0.0200026C215.44 -1.11 264.13 37.51 289.9 74.02C315.51 111.2 318.87 146.01 299.94 177.53C299.91 177.58 299.88 177.63 299.85 177.68C280.69 207.38 257.71 235.82 235.15 257.76C213.97 277.79 189.8 296.19 156.01 295.76C155.59 295.77 155.18 295.78 154.78 295.78ZM21.6499 171.68C40.3499 200.66 62.7399 228.37 84.6899 249.72C117.49 280.74 138.31 284.79 155.92 284.54C155.97 284.54 156.03 284.54 156.08 284.54C185.89 284.97 207.95 268.03 227.37 249.67C249.27 228.37 271.65 200.66 290.36 171.68C307.01 143.91 303.84 114.07 280.69 80.46C256.6 46.33 211.2 10.15 156.11 11.26C156.04 11.26 155.96 11.26 155.89 11.26C100.82 10.16 55.3999 46.32 31.2799 80.5C8.15992 114.06 4.99992 143.91 21.6499 171.68Z" fill="#603813"/>
<path d="M154.78 295.78C121.65 295.78 97.7899 277.56 76.9199 257.83C54.2999 235.83 31.3199 207.39 12.1699 177.69C12.1399 177.64 12.1099 177.59 12.0799 177.54C-6.86008 146.02 -3.49008 111.21 22.0799 74.08C47.8699 37.51 96.5699 -1.1 156 0.0200026C215.44 -1.11 264.13 37.51 289.9 74.02C315.51 111.2 318.87 146.01 299.94 177.53C299.91 177.58 299.88 177.63 299.85 177.68C280.69 207.38 257.71 235.82 235.15 257.76C213.97 277.79 189.8 296.19 156.01 295.76C155.59 295.77 155.18 295.78 154.78 295.78ZM21.6499 171.68C40.3499 200.66 62.7399 228.37 84.6899 249.72C117.49 280.74 138.31 284.79 155.92 284.54C155.97 284.54 156.03 284.54 156.08 284.54C185.89 284.97 207.95 268.03 227.37 249.67C249.27 228.37 271.65 200.66 290.36 171.68C307.01 143.91 303.84 114.07 280.69 80.46C256.6 46.33 211.2 10.15 156.11 11.26C156.04 11.26 155.96 11.26 155.89 11.26C100.82 10.16 55.3999 46.32 31.2799 80.5C8.15992 114.06 4.99992 143.91 21.6499 171.68Z" fill="#603813"/>
<path d="M156 207.95C135.15 207.95 114.82 204.65 98.75 198.66C81.68 192.3 72.28 183.86 72.28 174.92C72.28 163.56 86.86 156.81 99.09 153.16C114.36 148.6 134.57 146.08 155.99 146.08C177.41 146.08 197.62 148.59 212.89 153.16C225.12 156.82 239.7 163.56 239.7 174.92C239.7 183.87 230.3 192.3 213.23 198.66C197.18 204.65 176.85 207.95 156 207.95ZM156 156.97C135.6 156.97 116.5 159.32 102.21 163.59C88.24 167.76 83.17 172.65 83.17 174.91C83.17 177.44 88.33 183.14 102.55 188.44C117.22 193.91 136.7 197.04 156 197.04C175.3 197.04 194.78 193.9 209.45 188.44C223.67 183.14 228.83 177.44 228.83 174.91C228.83 172.65 223.76 167.77 209.79 163.59C195.5 159.33 176.4 156.97 156 156.97Z" fill="#603813"/>
<path d="M156.28 260.77C133.98 260.77 112.89 251.73 96.9 235.33C81.03 219.05 72.29 197.71 72.29 175.26H83.17C83.17 194.85 90.81 213.48 104.69 227.72C118.62 242.01 136.94 249.87 156.28 249.87C175.58 249.87 193.8 242.01 207.58 227.73C221.29 213.53 228.84 194.89 228.84 175.25H239.72C239.72 197.73 231.08 219.06 215.4 235.3C199.56 251.73 178.56 260.77 156.28 260.77Z" fill="#603813"/>
<path d="M220.11 195.72H205.02V152.98C205.02 126.63 183.58 105.19 157.23 105.19C130.88 105.19 109.44 126.63 109.44 152.98V160.53H94.3601V152.98C94.3601 118.31 122.57 90.1 157.24 90.1C191.91 90.1 220.12 118.31 220.12 152.98V195.72H220.11Z" fill="#603813"/>
<path d="M162.84 207.45C155.69 206.03 150.18 200.5 148.28 194.29C145.77 186.08 149.59 178.48 157.77 175.38C166.28 172.16 173.57 159.63 175.66 155.07L187.09 160.31C186.99 160.52 184.65 165.59 180.61 171.29C174.9 179.34 168.72 184.68 162.22 187.13C160.27 187.87 159.75 188.81 160.3 190.61C161.04 193.03 163.93 196 168.04 195.03C174.63 193.48 182.25 177.54 185.33 167.26L197.38 170.85C195.76 176.27 186.9 203.51 170.91 207.27C168.09 207.94 165.36 207.95 162.84 207.45Z" fill="#603813"/>
<path d="M212.46 173.57C216.19 157.11 205.87 140.74 189.41 137.01C172.95 133.28 156.58 143.6 152.85 160.06L212.46 173.57Z" fill="#603813"/>
<path d="M211.68 177.52C211.64 177.51 211.61 177.51 211.58 177.5L151.96 163.99C150.92 163.75 150.01 163.11 149.44 162.21C148.87 161.31 148.68 160.21 148.92 159.17C153.07 140.87 171.1 129.25 189.39 132.89C189.69 132.95 189.99 133.01 190.3 133.08C208.9 137.3 220.6 155.86 216.39 174.46C216.15 175.5 215.51 176.41 214.61 176.98C213.74 177.53 212.69 177.72 211.68 177.52ZM157.96 157.09L209.13 168.69C210.05 155.84 201.46 143.87 188.52 140.93C175.6 138 162.67 145.11 157.96 157.09Z" fill="#603813"/>
<path d="M127.06 202.3C123 204.33 118.18 203.72 114.87 201.39C110.5 198.31 109.47 193.12 112.32 188.47C115.28 183.63 114.07 174.69 113.36 171.65L120.98 169.86C121.01 170 121.8 173.39 121.99 177.73C122.26 183.87 121.25 188.86 119 192.55C118.32 193.66 118.43 194.32 119.38 194.99C120.67 195.9 123.22 196.25 124.87 194.21C127.52 190.93 125.18 180.18 122.76 173.95L130.06 171.11C131.34 174.39 137.38 191.18 130.96 199.13C129.82 200.54 128.49 201.58 127.06 202.3Z" fill="#603813"/>
<path d="M138.51 166.68C134.06 157.16 122.73 153.05 113.21 157.51C103.69 161.96 99.5802 173.29 104.04 182.81L138.51 166.68Z" fill="#603813"/>
<path d="M104.04 186.76C102.55 186.76 101.13 185.92 100.46 184.48C97.8601 178.92 97.5801 172.68 99.6701 166.91C101.76 161.14 105.98 156.53 111.54 153.93C123.02 148.56 136.73 153.53 142.1 165.01C142.54 165.96 142.59 167.05 142.24 168.03C141.88 169.02 141.15 169.82 140.2 170.26L105.72 186.39C105.17 186.64 104.6 186.76 104.04 186.76ZM121.25 159.67C119.11 159.67 116.94 160.13 114.88 161.09C111.23 162.8 108.47 165.82 107.09 169.61C106.18 172.12 105.95 174.77 106.4 177.34L132.78 165C129.9 161.59 125.64 159.67 121.25 159.67Z" fill="#603813"/>
<path d="M49.1098 128.49C48.5798 129.67 48.0298 130.7 47.4698 131.56C47.7198 131.73 47.9798 131.9 48.2498 132.05C48.5098 132.21 48.7298 132.32 48.8898 132.39C49.3798 132.61 49.8098 132.65 50.1798 132.52C50.5498 132.39 50.9198 132.06 51.2798 131.53C51.6498 131 52.0698 130.19 52.5598 129.11L54.2498 125.33C55.5198 122.5 56.9598 120.58 58.5898 119.57C60.2198 118.56 62.0898 118.53 64.1898 119.47C65.9898 120.27 67.2698 121.59 68.0198 123.42C68.7698 125.25 69.0398 127.31 68.8198 129.59C68.5998 131.87 68.0098 134.09 67.0398 136.26L67.0298 136.28C65.3798 139.97 63.6198 142.38 61.7498 143.51C59.8798 144.64 58.0198 144.79 56.1698 143.96C55.5098 143.67 54.9398 143.22 54.4398 142.62C53.9398 142.02 53.5498 141.32 53.2798 140.54C52.9998 139.75 52.8898 138.94 52.9198 138.12C51.6498 138.97 50.2698 139.07 48.7798 138.4C47.9698 138.04 47.3198 137.4 46.8098 136.48C46.2998 135.56 46.0598 134.52 46.0998 133.35C44.8598 134.73 43.5498 135.52 42.1798 135.73C40.7998 135.94 39.3398 135.7 37.7998 135.01C36.4398 134.4 35.4398 133.42 34.8298 132.06C34.2098 130.71 33.9798 129.13 34.1398 127.32C34.2998 125.52 34.7998 123.66 35.6598 121.74L35.6698 121.72C37.2398 118.21 38.9698 115.98 40.8698 115.05C40.5698 114.48 40.3898 113.72 40.3498 112.79C40.3098 111.86 40.4598 110.99 40.8198 110.2L41.4698 108.75L46.7398 111.1L45.1098 114.75C45.5898 114.86 46.1198 115.04 46.6898 115.3C48.1098 115.92 49.1698 116.83 49.8798 118.03C50.5898 119.23 50.8998 120.71 50.7998 122.47C50.6998 124.23 50.1498 126.23 49.1498 128.47L49.1098 128.49ZM38.2698 123.15C37.8498 124.08 37.8998 124.9 38.4098 125.62C38.9198 126.33 39.8098 126.97 41.0798 127.54C42.5098 128.18 43.6598 128.45 44.5298 128.35C45.3998 128.25 46.0398 127.75 46.4498 126.84L46.4598 126.82C46.8498 125.94 46.7798 125.15 46.2398 124.47C45.6998 123.78 44.7898 123.15 43.4998 122.58C42.0398 121.93 40.8998 121.64 40.0798 121.72C39.2598 121.8 38.6598 122.27 38.2698 123.14V123.15ZM58.0698 136.06C59.4298 136.67 60.6298 136.81 61.6698 136.49C62.7198 136.17 63.5498 135.32 64.1698 133.93L64.1898 133.89C64.5098 133.19 64.6498 132.47 64.6298 131.73C64.6098 131 64.3798 130.3 63.9398 129.66C63.4998 129.01 62.8398 128.49 61.9398 128.09C60.9198 127.63 60.0798 127.57 59.4398 127.89C58.7998 128.21 58.2198 128.94 57.7198 130.06L56.0698 133.74C55.9698 133.97 55.8398 134.26 55.6798 134.61C56.2598 135.12 57.0598 135.6 58.0698 136.06Z" fill="#603813" stroke="#603813" stroke-width="1.0209" stroke-miterlimit="10"/>
<path d="M62.5899 113.49L50.6699 105.19L48.7199 106.58L45.5999 104.41L49.1299 97.57L49.1899 97.48L50.7699 96.91L51.7199 97.57L54.6099 99.76L54.6999 99.62C54.1599 99.02 53.7099 98.19 53.3599 97.11C53.0099 96.03 52.8699 94.89 52.9599 93.67C53.0399 92.45 53.4299 91.34 54.1199 90.35C54.3599 90.01 54.5999 89.73 54.8399 89.5C55.0799 89.27 55.2899 89.12 55.4799 89.05L62.6399 94.03C61.9699 94.22 61.3699 94.49 60.8399 94.83C60.2999 95.17 59.7599 95.74 59.2099 96.53C58.7399 97.21 58.3799 97.89 58.1499 98.56C57.9099 99.24 57.8099 99.79 57.8399 100.21L67.2599 106.76L70.0899 103.46L72.5299 105.16L64.0799 117.3L61.6199 115.59L62.5899 113.49Z" fill="#603813" stroke="#603813" stroke-width="1.0209" stroke-miterlimit="10"/>
<path d="M70.1697 77.76L65.3497 82.57L67.5597 86.63L64.9397 89.24L59.4397 83.73L73.3397 69.87L76.1397 70.98L79.3097 87.76L79.6397 92.46L84.1697 87.22L82.2997 82.03L85.0797 79.84L90.4197 86.08L75.8697 100.58L72.8897 99.5L70.4297 82.85L70.1697 77.76Z" fill="#603813" stroke="#603813" stroke-width="1.0209" stroke-miterlimit="10"/>
<path d="M95.4399 87.22C95.7199 87.24 96.1999 87.11 96.8799 86.82C97.5699 86.53 98.1499 86.23 98.6399 85.92C99.5099 85.35 100.11 84.72 100.45 84C100.79 83.29 100.95 82.55 100.94 81.78C100.92 81.01 100.81 80.1 100.61 79.05L98.3799 80.51L80.8199 68.07L79.0399 68.64L77.3799 66.09L88.7799 58.65L90.4399 61.2L88.3899 63.13L96.8899 70.33L99.4799 72.64L98.1999 69.47L94.8699 58.87L92.5799 59.79L90.9199 57.24L99.3699 51.72L101.03 54.27L99.6599 55.73C100.28 58.1 101.27 62.08 102.62 67.68C103.97 73.28 104.68 76.27 104.76 76.64C105.31 79 105.62 81.04 105.66 82.74C105.71 84.44 105.43 85.93 104.84 87.2C104.25 88.48 103.27 89.56 101.91 90.45C101.34 90.82 100.74 91.16 100.09 91.48C99.4399 91.8 98.9399 91.98 98.5699 92.04L95.4399 87.22Z" fill="#603813" stroke="#603813" stroke-width="1.0209" stroke-miterlimit="10"/>
<path d="M100.67 43.57L99.7397 40.94L107.94 36.88L108.04 36.85L109.84 37.22L113.89 48.69C114.28 47.79 114.87 46.95 115.67 46.15C116.47 45.36 117.41 44.77 118.47 44.39C120.16 43.79 121.77 43.63 123.3 43.9C124.83 44.17 126.23 44.96 127.52 46.28C128.8 47.59 129.87 49.47 130.73 51.91C131.52 54.14 131.73 56.31 131.38 58.43C131.02 60.55 130.1 62.44 128.61 64.11C127.12 65.78 125.13 67.05 122.63 67.93C120.87 68.55 119.3 68.99 117.92 69.26C116.54 69.53 115.43 69.68 114.6 69.71C113.77 69.74 113.17 69.72 112.82 69.66L103.49 43.23L100.67 43.57ZM119.73 65.28C119.89 65.41 120.17 65.48 120.57 65.48C120.96 65.48 121.4 65.39 121.86 65.23C123.07 64.8 123.77 63.75 123.96 62.06C124.15 60.37 123.74 58.12 122.75 55.3C121.94 52.99 121.06 51.42 120.12 50.57C119.18 49.72 118.19 49.48 117.14 49.85C116.63 50.03 116.18 50.31 115.8 50.68C115.41 51.05 115.14 51.44 114.99 51.84L119.73 65.28Z" fill="#603813" stroke="#603813" stroke-width="1.0209" stroke-miterlimit="10"/>
<path d="M153.05 39.81C154.87 40.55 156.33 41.74 157.43 43.39C158.53 45.04 159.17 47.11 159.35 49.62C159.55 52.4 159.16 54.72 158.2 56.59C157.24 58.46 155.86 59.87 154.07 60.83C152.28 61.79 150.21 62.35 147.87 62.52C145.57 62.68 143.52 62.39 141.7 61.65C139.89 60.91 138.42 59.71 137.31 58.06C136.2 56.4 135.55 54.33 135.38 51.84C135.19 49.17 135.58 46.89 136.55 45.02C137.52 43.15 138.9 41.71 140.69 40.7C142.49 39.69 144.54 39.11 146.85 38.95C149.17 38.78 151.23 39.07 153.05 39.81ZM149.91 45.7C149.61 44.44 149.21 43.53 148.69 42.96C148.17 42.4 147.52 42.14 146.72 42.2C145.66 42.27 144.91 42.98 144.47 44.33C144.03 45.68 143.91 47.79 144.12 50.66C144.27 52.76 144.5 54.45 144.83 55.72C145.16 56.99 145.59 57.91 146.12 58.47C146.66 59.03 147.32 59.28 148.12 59.23C149.17 59.16 149.89 58.45 150.28 57.12C150.68 55.79 150.77 53.67 150.57 50.77C150.43 48.66 150.2 46.97 149.91 45.7Z" fill="#603813" stroke="#603813" stroke-width="1.0209" stroke-miterlimit="10"/>
<path d="M173.98 55.56C172.71 55.3 171.59 54.98 170.63 54.62C170.51 54.91 170.41 55.19 170.31 55.48C170.22 55.77 170.15 56 170.11 56.18C170 56.71 170.05 57.14 170.26 57.47C170.47 57.8 170.87 58.09 171.47 58.33C172.07 58.57 172.95 58.81 174.11 59.05L178.16 59.88C181.2 60.51 183.39 61.51 184.72 62.88C186.06 64.25 186.49 66.07 186.03 68.32C185.63 70.25 184.62 71.78 182.99 72.91C181.36 74.04 179.41 74.74 177.14 75.02C174.87 75.3 172.57 75.2 170.24 74.72H170.22C166.26 73.91 163.53 72.71 162.03 71.12C160.53 69.54 159.98 67.75 160.39 65.77C160.53 65.07 160.85 64.41 161.33 63.79C161.81 63.17 162.4 62.64 163.11 62.2C163.82 61.76 164.58 61.47 165.4 61.33C164.29 60.27 163.91 58.95 164.23 57.35C164.41 56.49 164.89 55.7 165.68 55.01C166.47 54.31 167.44 53.86 168.58 53.64C166.96 52.73 165.91 51.62 165.41 50.32C164.91 49.02 164.83 47.54 165.17 45.89C165.47 44.42 166.22 43.25 167.41 42.35C168.6 41.46 170.09 40.89 171.89 40.66C173.68 40.42 175.61 40.52 177.66 40.94H177.68C181.45 41.72 183.99 42.93 185.32 44.58C185.82 44.16 186.51 43.83 187.42 43.58C188.32 43.34 189.2 43.3 190.05 43.48L191.61 43.8L190.45 49.45L186.54 48.64C186.54 49.14 186.47 49.69 186.35 50.3C186.05 51.82 185.39 53.05 184.37 54C183.35 54.95 181.97 55.57 180.23 55.86C178.49 56.14 176.42 56.04 174.01 55.54L173.98 55.56ZM168.53 65.94C168.23 67.4 168.35 68.6 168.88 69.55C169.42 70.5 170.43 71.13 171.91 71.44L171.95 71.45C172.71 71.61 173.44 71.59 174.15 71.42C174.86 71.24 175.49 70.87 176.03 70.3C176.57 69.73 176.94 68.97 177.14 68.01C177.37 66.91 177.25 66.08 176.8 65.52C176.34 64.96 175.52 64.56 174.31 64.31L170.36 63.5C170.12 63.45 169.81 63.39 169.43 63.31C169.06 63.97 168.76 64.85 168.53 65.94ZM176.87 43.81C175.87 43.6 175.08 43.83 174.49 44.48C173.9 45.13 173.47 46.14 173.19 47.5C172.87 49.03 172.86 50.22 173.15 51.05C173.44 51.88 174.07 52.4 175.04 52.6H175.06C176.01 52.79 176.76 52.55 177.31 51.87C177.86 51.19 178.28 50.17 178.57 48.79C178.89 47.22 178.93 46.05 178.67 45.26C178.42 44.48 177.82 43.99 176.89 43.8L176.87 43.81Z" fill="#603813" stroke="#603813" stroke-width="1.0209" stroke-miterlimit="10"/>
<path d="M191.25 65.73L197.43 52.59L195.73 50.9L197.35 47.46L204.69 49.79L204.78 49.83L205.6 51.29L205.11 52.34L203.44 55.55L203.59 55.62C204.09 54.98 204.84 54.4 205.84 53.88C206.84 53.35 207.95 53.03 209.17 52.91C210.39 52.79 211.54 52.99 212.64 53.5C213.01 53.68 213.33 53.86 213.6 54.07C213.86 54.27 214.05 54.46 214.15 54.63L210.44 62.52C210.14 61.9 209.77 61.35 209.35 60.88C208.93 60.41 208.28 59.96 207.4 59.55C206.65 59.2 205.92 58.96 205.22 58.84C204.51 58.72 203.95 58.71 203.54 58.82L198.65 69.2L202.38 71.43L201.11 74.12L187.73 67.82L189.01 65.11L191.25 65.73Z" fill="#603813" stroke="#603813" stroke-width="1.0209" stroke-miterlimit="10"/>
<path d="M225.55 71.68C225.95 71.14 226.19 70.67 226.27 70.26C226.35 69.85 226.23 69.4 225.91 68.92C225.59 68.44 224.99 67.87 224.12 67.22C222.96 66.35 221.87 65.68 220.85 65.2C219.83 64.72 218.76 64.29 217.65 63.89L217.63 63.88L218.19 60.41C218.85 60.41 219.75 60.51 220.9 60.74C222.05 60.97 223.33 61.37 224.77 61.96C226.2 62.55 227.59 63.35 228.92 64.36C230.83 65.79 232.15 67.14 232.87 68.4C233.6 69.66 233.82 70.94 233.55 72.25C233.28 73.56 232.52 75.03 231.29 76.67L224.39 85.86L226.04 87.1L224.2 89.55C223.62 89.27 222.76 88.79 221.62 88.11C220.48 87.43 219.55 86.82 218.82 86.27C218.15 85.76 217.69 85.32 217.45 84.95C217.21 84.57 217.13 84.2 217.22 83.83C217.31 83.46 217.55 83.02 217.94 82.5L218.4 81.88C217.33 82.2 216.15 82.27 214.85 82.09C213.55 81.91 212.28 81.35 211.02 80.41C209.96 79.61 209.17 78.65 208.65 77.52C208.13 76.39 207.94 75.19 208.09 73.91C208.24 72.63 208.76 71.4 209.66 70.2C211.17 68.2 213.24 67.33 215.88 67.6C218.52 67.87 221.65 69.37 225.27 72.08L225.55 71.68ZM223.39 74.55C221.97 73.48 220.72 73 219.64 73.1C218.56 73.2 217.69 73.69 217.04 74.56C216.35 75.48 215.99 76.36 215.94 77.21C215.9 78.06 216.21 78.73 216.87 79.23C217.19 79.47 217.6 79.64 218.09 79.74C218.58 79.84 219.05 79.85 219.47 79.76L223.39 74.55Z" fill="#603813" stroke="#603813" stroke-width="1.0209" stroke-miterlimit="10"/>
<path d="M228.96 90.34L240.02 80.97L239.16 78.74L242.14 76.21L248.45 82.06L248.52 82.14L248.56 83.73L247.51 84.62L246.75 85.21C248.09 85.34 249.46 85.76 250.87 86.48C252.28 87.2 253.53 88.21 254.64 89.51C255.7 90.76 256.33 91.95 256.54 93.08C256.75 94.21 256.51 95.37 255.83 96.56C255.15 97.75 253.96 99.06 252.28 100.49L243.74 107.73L244.79 109.55L242.44 111.55L234.52 102.21L236.84 100.24L238.3 101.31L246.83 94.08C247.73 93.32 248.37 92.67 248.76 92.14C249.14 91.61 249.32 91.11 249.29 90.66C249.26 90.21 249.03 89.72 248.59 89.21C247.85 88.34 246.7 87.81 245.13 87.64L234.4 96.73L235.43 98.57L233.1 100.54L224.97 90.94L227.29 88.97L228.96 90.34Z" fill="#603813" stroke="#603813" stroke-width="1.0209" stroke-miterlimit="10"/>
<path d="M247.37 114.03L260.32 106.54L259.68 103.78L262.85 101.95L268.56 109.55L268.61 109.64L268.47 111.34L251.49 121.15L252.23 123.26L249.51 124.83L243.13 113.8L245.85 112.23L247.37 114.03ZM272.63 98.76C273.42 98.73 274.16 98.93 274.86 99.33C275.56 99.74 276.14 100.35 276.61 101.16L276.62 101.18C277.08 101.98 277.33 102.75 277.37 103.48C277.41 104.22 277.25 104.88 276.92 105.46C276.58 106.05 276.1 106.52 275.46 106.89C274.71 107.32 273.94 107.55 273.17 107.58C272.4 107.6 271.66 107.4 270.95 106.97C270.25 106.54 269.63 105.87 269.11 104.96L269.1 104.94C268.7 104.25 268.49 103.55 268.46 102.84C268.43 102.13 268.58 101.47 268.91 100.87C269.24 100.27 269.71 99.78 270.33 99.43C271.07 99.01 271.84 98.78 272.63 98.76Z" fill="#603813" stroke="#603813" stroke-width="1.0209" stroke-miterlimit="10"/>
<path d="M268.09 121.29C270.09 121.54 271.84 122.33 273.34 123.66C274.84 124.99 276.02 126.78 276.9 129.05C278.02 131.96 278.23 134.42 277.51 136.44C276.79 138.46 275.26 139.95 272.9 140.91C271.42 141.48 270.07 141.87 268.85 142.06L264.28 130.25C262.28 131.24 260.96 132.35 260.32 133.58C259.68 134.8 259.66 136.2 260.27 137.77C260.62 138.67 261.14 139.57 261.84 140.46C262.54 141.35 263.22 142.09 263.89 142.67L261.66 145C261.05 144.78 260.31 144.31 259.43 143.6C258.55 142.89 257.69 142 256.85 140.94C256.01 139.88 255.35 138.73 254.87 137.49C253.39 133.67 253.28 130.51 254.54 128.01C255.8 125.51 258.13 123.61 261.53 122.29C263.9 121.36 266.08 121.03 268.09 121.29ZM269.06 134.05L270.45 133.54C271.83 133.01 272.8 132.45 273.36 131.86C273.92 131.27 274.04 130.56 273.71 129.73C273.48 129.13 273.14 128.68 272.71 128.4C272.28 128.12 271.62 128.01 270.73 128.09C269.84 128.17 268.64 128.49 267.12 129.06L269.06 134.05Z" fill="#603813" stroke="#603813" stroke-width="1.0209" stroke-miterlimit="10"/>
</svg>
